<?xml version="1.0" encoding="UTF-8" standalone="no"?>
<svg
   xmlns:dc="http://purl.org/dc/elements/1.1/"
   xmlns:cc="http://creativecommons.org/ns#"
   xmlns:rdf="http://www.w3.org/1999/02/22-rdf-syntax-ns#"
   xmlns:svg="http://www.w3.org/2000/svg"
   xmlns="http://www.w3.org/2000/svg"
   xmlns:xlink="http://www.w3.org/1999/xlink"
   xmlns:sodipodi="http://sodipodi.sourceforge.net/DTD/sodipodi-0.dtd"
   xmlns:inkscape="http://www.inkscape.org/namespaces/inkscape"
   width="175.26538"
   height="155.80759"
   viewBox="0 0 175.26538 155.80759"
   version="1.1"
   id="svg40"
   sodipodi:docname="childs-play-crop.svg"
   inkscape:version="0.92.4 (5da689c313, 2019-01-14)">
  <metadata
     id="metadata44">
    <rdf:RDF>
      <cc:Work
         rdf:about="">
        <dc:format>image/svg+xml</dc:format>
        <dc:type
           rdf:resource="http://purl.org/dc/dcmitype/StillImage" />
        <dc:title>logo-childs-play</dc:title>
      </cc:Work>
    </rdf:RDF>
  </metadata>
  <!-- Generator: Sketch 54.1 (76490) - https://sketchapp.com -->
  <title
     id="title28">logo-childs-play</title>
  <defs
     id="defs31">
    <path
       d="m 101.6504,99.662 h -10.012 v 10.009 h -8.808 V 99.662 h -10.008 v -8.806 h 10.008 V 80.847 h 8.808 v 10.009 h 10.012 z m 63.297,39.663 c 0.24,4.395 -0.623,9.44 -5.045,12.032 -4.418,2.596 -7.781,3.22 -10.398,2.884 -2.622,-0.338 -4.493,-1.633 -5.934,-2.884 -1.44,-1.248 -18.832,-20.368 -18.832,-20.368 0,0 -1.984,-2.95 -6.225,-5.899 -0.697,-0.486 -1.463,-0.971 -2.283,-1.444 -2.162,1.708 -4.889,2.731 -7.857,2.731 -3.502,0 -6.672,-1.42 -8.969,-3.715 -1.004,-1.003 -1.838,-2.176 -2.467,-3.471 h -19.408 c -0.623,1.295 -1.459,2.468 -2.465,3.471 -2.295,2.295 -5.465,3.715 -8.967,3.715 -2.968,0 -5.695,-1.023 -7.855,-2.731 -0.822,0.473 -1.588,0.958 -2.287,1.444 -4.237,2.949 -6.223,5.899 -6.223,5.899 0,0 -17.389,19.12 -18.83,20.368 -1.441,1.251 -3.316,2.546 -5.936,2.884 -2.615,0.336 -5.978,-0.288 -10.398,-2.884 -4.42,-2.592 -5.285,-7.637 -5.045,-12.032 0.24,-4.398 1.586,-8.144 1.586,-8.144 0,0 16.717,-48.425 19.023,-54.958 2.307,-6.537 5.717,-9.416 8.553,-10.668 2.834,-1.248 9.361,-0.867 11.432,-0.864 6.002,0.013 11.959,7.497 20.797,7.497 h 10.795 c -5.346,-7.128 -14.01,-20.683 -10.077,-29.283 2.141,-4.681 7.391,-7.054 15.602,-7.054 6.072,0 9.785,-1.386 11.037,-4.122 2.934,-6.407 -6.379,-20.849 -12.935,-28.448 L 89.1344,0 c 1.952,2.259 18.924,22.404 13.703,33.817 -2.142,4.681 -7.39,7.055 -15.603,7.055 -6.07,0 -9.783,1.386 -11.035,4.121 -2.781,6.072 5.433,19.355 11.883,27.195 h 15.474 c 8.838,0 14.795,-7.484 20.795,-7.497 2.074,-0.003 8.602,-0.384 11.436,0.864 2.834,1.252 6.244,4.131 8.552,10.668 2.303,6.533 19.024,54.958 19.024,54.958 0,0 1.344,3.746 1.584,8.144 z M 16.6269,179.7294 c -1.668,-0.884 -3.664,-1.211 -5.17,-1.211 -2.324,0 -3.928,1.243 -4.746,4.222 -0.361,1.375 -0.654,2.946 -0.654,4.68 0,2.749 1.177,3.731 3.435,3.731 1.573,0 3.895,-0.49 5.565,-1.211 0.197,1.506 0.261,2.553 0.261,3.372 0,0.523 0,0.916 -0.097,1.931 -1.801,0.588 -4.418,0.949 -6.219,0.949 -6.121,0 -9.002,-2.88 -9.002,-8.51 0,-2.39 0.426,-4.647 1.113,-6.677 1.573,-4.713 5.336,-7.528 10.901,-7.528 2.127,0 4.582,0.426 6.25,1.211 -0.229,1.145 -1.014,3.372 -1.637,5.041 z m 12.9278,4.4512 c 0,-0.654 -0.426,-1.015 -1.572,-1.015 -0.883,0 -1.473,0.164 -2.291,0.589 l -2.127,12.11 h -5.401 l 4.223,-23.957 c 1.506,-0.198 3.666,-0.394 5.465,-0.394 l -1.57,8.772 h 0.261 c 1.178,-1.178 2.52,-1.833 3.83,-1.833 2.912,0 4.778,1.408 4.778,4.255 0,0.458 -0.065,0.982 -0.131,1.374 l -1.08,6.023 c -0.031,0.164 -0.065,0.393 -0.065,0.457 0,0.328 0.164,0.526 0.524,0.526 h 2.193 l -0.328,1.929 c -0.426,2.422 -1.932,3.176 -3.797,3.176 -2.912,0 -4.156,-1.244 -4.156,-3.666 0,-0.687 0.064,-1.408 0.228,-2.324 l 0.983,-5.596 c 0.033,-0.164 0.033,-0.328 0.033,-0.426 z m 14.2031,-6.9717 c -1.768,0 -2.619,-1.146 -2.619,-2.39 0,-1.832 1.375,-3.305 3.502,-3.305 1.734,0 2.553,1.145 2.553,2.423 0,1.962 -1.342,3.272 -3.436,3.272 z m 2.717,15.808 c -0.426,2.422 -1.932,3.176 -3.797,3.176 -2.914,0 -4.158,-1.244 -4.158,-3.666 0,-0.688 0.066,-1.408 0.23,-2.324 l 1.996,-11.423 h 5.401 l -1.996,11.325 c -0.034,0.164 -0.067,0.393 -0.067,0.457 0,0.328 0.164,0.525 0.524,0.525 h 2.193 z m 8.0818,-2.912 c -0.033,0.164 -0.064,0.393 -0.064,0.457 0,0.328 0.162,0.525 0.523,0.525 h 2.191 l -0.326,1.93 c -0.426,2.422 -1.931,3.176 -3.797,3.176 -2.914,0 -4.156,-1.244 -4.156,-3.666 0,-0.688 0.065,-1.408 0.229,-2.324 l 3.207,-18.296 c 1.506,-0.197 3.666,-0.393 5.466,-0.393 z m 19.6371,-0.0329 c -0.034,0.164 -0.065,0.425 -0.065,0.49 0,0.328 0.162,0.525 0.524,0.525 h 2.16 l -0.328,1.93 c -0.426,2.422 -1.866,3.176 -3.731,3.176 -1.539,0 -2.717,-0.459 -3.404,-2.063 h -0.262 c -1.439,1.637 -2.847,2.063 -4.679,2.063 -3.7,0 -5.303,-2.488 -5.303,-6.578 0,-0.819 0.033,-1.54 0.164,-2.424 1.111,-6.774 4.877,-8.738 8.738,-8.738 0.688,0 1.996,0.163 2.781,0.327 l 1.211,-6.873 c 1.573,-0.197 3.666,-0.393 5.467,-0.393 z m -4.223,-6.742 c -0.49,-0.229 -1.275,-0.394 -1.865,-0.394 -1.571,0 -2.487,0.852 -3.076,4.223 -0.131,0.851 -0.229,1.538 -0.229,2.161 0,1.734 0.654,2.355 1.768,2.355 0.849,0 1.439,-0.131 2.029,-0.392 z m 16.789,-8.2158 c -0.621,3.339 -2.684,6.219 -6.35,7.528 -0.621,-0.883 -1.177,-1.931 -1.406,-2.913 1.799,-0.655 2.748,-1.538 3.11,-2.487 h -1.147 c -0.131,-0.852 -0.131,-1.244 -0.131,-1.702 0,-0.917 0.131,-2.03 0.328,-3.012 h 6.088 z m 11.75,8.5752 c -1.408,-0.458 -3.502,-0.785 -4.779,-0.785 -0.883,0 -1.309,0.262 -1.309,1.08 0,1.538 6.088,0.981 6.088,6.023 0,3.73 -2.881,6.185 -7.691,6.185 -1.965,0 -4.223,-0.589 -5.696,-1.472 0.262,-1.408 0.983,-3.405 1.637,-4.582 1.406,0.849 3.469,1.439 4.975,1.439 0.818,0 1.177,-0.262 1.177,-1.047 0,-1.636 -6.121,-1.049 -6.121,-6.12 0,-3.339 2.619,-5.957 7.922,-5.957 1.178,0 3.567,0.261 4.811,0.621 -0.164,1.309 -0.557,3.077 -1.014,4.615 z m 18.2284,5.4994 h -1.67 l -1.177,6.676 h -5.827 l 2.848,-16.038 c 0.033,-0.196 0.064,-0.458 0.064,-0.589 0,-0.392 -0.195,-0.654 -0.818,-0.654 h -1.637 l 0.295,-1.637 c 0.393,-2.258 1.834,-3.469 4.518,-3.469 1.439,0 2.65,0.261 3.404,1.047 1.047,-0.786 2.389,-1.047 3.502,-1.047 3.697,0 5.924,2.094 5.924,6.349 0,6.252 -4.354,9.362 -9.426,9.362 z m 1.799,-11.227 c -0.588,0 -1.014,0.065 -1.537,0.164 l -1.147,6.481 h 1.506 c 1.735,0 3.012,-1.54 3.012,-4.419 0,-1.506 -0.654,-2.226 -1.834,-2.226 z m 14.2695,12.1431 c -0.033,0.164 -0.066,0.393 -0.066,0.457 0,0.328 0.164,0.525 0.523,0.525 h 2.193 l -0.328,1.93 c -0.424,2.422 -1.929,3.176 -3.795,3.176 -2.914,0 -4.158,-1.244 -4.158,-3.666 0,-0.688 0.067,-1.408 0.231,-2.324 l 3.207,-18.296 c 1.506,-0.197 3.666,-0.393 5.464,-0.393 z m 14.4007,4.0255 h -0.229 c -1.375,1.801 -2.881,2.062 -4.32,2.062 -3.404,0 -5.303,-2.127 -5.303,-6.578 0,-0.72 0.033,-1.637 0.164,-2.423 1.047,-6.578 4.744,-8.738 8.738,-8.738 0.883,0 2.127,0.163 2.946,0.392 0.687,-0.229 1.472,-0.392 2.519,-0.392 0.688,0 1.703,0.097 2.227,0.294 l -1.965,11.358 c -0.031,0.164 -0.064,0.392 -0.064,0.457 0,0.328 0.164,0.525 0.523,0.525 h 2.193 l -0.328,1.93 c -0.426,2.422 -1.865,3.175 -3.73,3.175 -1.539,0 -2.684,-0.459 -3.371,-2.062 z m 0.654,-10.899 c -0.426,-0.164 -1.08,-0.295 -1.604,-0.295 -1.505,0 -2.455,0.982 -2.978,4.223 -0.131,0.884 -0.229,1.604 -0.229,2.16 0,1.702 0.588,2.356 1.702,2.356 0.654,0 1.177,-0.098 1.734,-0.36 z m 18.2949,12.3383 c -3.109,6.121 -5.631,7.365 -8.936,7.365 -0.884,0 -2.488,-0.131 -3.763,-0.818 0.326,-1.57 0.816,-3.109 1.537,-4.615 0.851,0.359 2.096,0.556 2.945,0.556 0.787,0 1.311,-0.425 1.899,-1.375 l 0.589,-0.982 -2.16,-11.619 c -0.066,-0.327 -0.261,-0.523 -0.621,-0.523 h -1.931 l 0.326,-1.931 c 0.426,-2.422 1.998,-3.175 3.863,-3.175 2.717,0 3.404,1.277 3.633,3.699 l 0.49,5.204 c 0.033,0.392 0.066,1.079 0.066,2.062 h 0.262 c 0.196,-0.752 0.524,-1.67 0.752,-2.161 l 3.994,-8.575 c 1.407,0 3.698,0.098 5.368,0.36 z"
       id="path-1"
       inkscape:connector-curvature="0" />
  </defs>
  <g
     id="Symbols"
     style="fill:none;fill-rule:evenodd;stroke:none;stroke-width:1"
     transform="translate(0.14520743)">
    <g
       id="Logo/Childs-Play-Black">
      <g
         id="logo-childs-play">
        <mask
           id="mask-2"
           fill="white">
          <use
             xlink:href="#path-1"
             id="use33"
             x="0"
             y="0"
             width="100%"
             height="100%" />
        </mask>
        <use
           id="Mask"
           xlink:href="#path-1"
           style="fill:#99bb72"
           x="0"
           y="0"
           width="100%"
           height="100%" />
      </g>
    </g>
  </g>
</svg>
