<?xml version="1.0" encoding="utf-8"?>
<!-- Generator: Adobe Illustrator 16.0.0, SVG Export Plug-In . SVG Version: 6.00 Build 0)  -->
<!DOCTYPE svg PUBLIC "-//W3C//DTD SVG 1.1//EN" "http://www.w3.org/Graphics/SVG/1.1/DTD/svg11.dtd">
<svg version="1.1" id="Layer_1" xmlns="http://www.w3.org/2000/svg" xmlns:xlink="http://www.w3.org/1999/xlink" x="0px" y="0px"
	 width="300px" height="300px" viewBox="0 0 300 300" enable-background="new 0 0 300 300" xml:space="preserve">
<g>
	<path fill="#003366" d="M184.483,110.055c-3.377-2.44-5.656-5.323-7.134-9.35c-4.677-12.545-11.928-23.727-19.256-34.828
		c-4.019-6.079-8.13-12.085-10.62-18.999c-1.098-3.048-2.094-6.15-1.718-9.455c0.362-3.17,1.558-4.339,4.706-4.829
		c-1.803-0.781-3.689-1.013-5.609-0.65c-7.59,1.422-12.723,6.179-16.378,12.617c-4.517,7.948-4.955,16.711-4.229,25.537
		c1.034,12.461,4.175,24.486,8.201,36.301c3.77,11.059,8.472,21.793,11.118,33.245c2.723,11.803,4.335,23.583,2.039,35.639
		c-2.588,13.558-9.742,23.891-22.313,29.902c-6.091,2.92-12.405,2.853-17.04-3.242c-1.861-2.465-3.504-5.116-5.593-7.328
		c-8.05-8.577-18.231-9.219-28.982-7.412c-1.46,0.236-1.347,1.131-0.68,2.094c0.713,1.014,1.553,1.941,2.284,2.972
		c3.17,4.322,4.719,9.421,6.88,14.267c4.209,9.404,10.844,15.99,21.316,17.965c1.723,0.338,1.325,0.996,0.781,2.043
		c-2.799,5.369-3.344,11.043-2.098,16.918c1.144,5.403,3.719,10.198,6.356,14.96c2.799,5.065,6.687,9.557,7.69,15.517
		c0.249,1.502,1.25,1.452,2.279,0.625c1.773-1.452,3.411-3.09,4.711-4.947c6.247-8.848,7.299-18.354,3.432-28.484
		c-2.363-6.18-1.291-11.937,2.946-15.635c2.406-2.094,5.294-3.393,8.366-4.237c0.3-0.372,0.727-0.558,1.081-0.845
		c-0.021,0-0.042,0.018-0.063,0.018c-0.422,0.186-0.752,0.489-1.136,0c1.511-1.824,3.829-2.499,5.698-3.833
		c17.315-12.343,28.323-29.142,34.95-49.065c1.731-5.217,3.073-10.54,4.373-16.373c4.838,6.331,10.266,11.561,15.204,17.234
		c0.229,0.236,0.262,0.642,0.389,0.996c-0.042,0.067-0.076,0.135-0.109,0.202c0.059,0.203,0.144,0.389,0.211,0.591
		c1.013,0.422,1.503,1.352,2.094,2.179c1.427,1.958,2.743,3.984,3.841,6.146c0.574,1.148,1.427,1.452,2.136,0.271
		c1.773-2.955,3.824-5.809,5.04-8.982c4.171-10.945,3.056-21.743-1.545-32.363c-1.114-2.541-2.786-4.82-3.512-7.534
		c-0.186-0.118-0.431-0.211-0.532-0.376C199.122,121.431,192.006,115.525,184.483,110.055z"/>
	<path fill="#FBFCFC" stroke="#33CCCC" stroke-width="0.25" stroke-miterlimit="10" d="M197.104,88.832
		c-0.22-0.549-0.321-1.127-0.481-1.697c-0.895-1.903-1.789-3.824-2.71-5.724c-7.091-14.596-17.036-27.053-28.863-38.04
		c-4.449-4.137-8.755-8.51-14.588-10.776c-3.148,0.49-4.344,1.659-4.706,4.829c-0.376,3.305,0.62,6.407,1.718,9.455
		c2.49,6.914,6.602,12.92,10.62,18.999c7.328,11.101,14.579,22.283,19.256,34.828c1.478,4.027,3.757,6.91,7.134,9.35
		c7.522,5.47,14.639,11.375,19.577,19.467c0.102,0.165,0.347,0.258,0.532,0.376c-0.245-1.481-0.228-2.955,0.034-4.432
		c-0.203-2.182-0.423-4.36-0.583-6.542C203.293,108.531,200.912,98.511,197.104,88.832z"/>
	<path fill="#FBFCFC" stroke="#33CCCC" stroke-width="0.25" stroke-miterlimit="10" d="M180.963,151.953
		c-1.3,5.842-2.642,11.174-4.373,16.373c-6.644,19.924-17.635,36.724-34.95,49.083c-1.498,1.063-3.19,1.841-4.617,3.005
		c4.884-1.908,9.759-3.85,14.461-6.213c15.575-7.852,28.83-18.387,38.369-33.178c2.355-3.681,4.322-7.615,6.476-11.431
		c-0.051-0.135-0.067-0.304-0.152-0.405C191.212,163.515,185.801,158.293,180.963,151.953z"/>
	<path fill="#FBFCFC" stroke="#33CCCC" stroke-width="0.25" stroke-miterlimit="10" d="M196.049,168.395
		c-4.938-5.674-10.366-10.903-15.204-17.234c-1.3,5.833-2.642,11.156-4.373,16.373c-6.627,19.924-17.635,36.723-34.95,49.065
		c-1.869,1.334-4.188,2.009-5.698,3.833c0.384,0.489,0.714,0.186,1.136,0c0.021,0,0.042-0.018,0.063-0.018
		c1.427-1.164,3.119-1.941,4.617-3.005c17.315-12.359,28.307-29.159,34.95-49.083c1.731-5.199,3.073-10.531,4.373-16.373
		c4.838,6.34,10.249,11.562,15.213,17.234c0.085,0.102,0.102,0.271,0.152,0.405c0.033-0.067,0.067-0.135,0.109-0.202
		C196.311,169.036,196.277,168.631,196.049,168.395z"/>
	<path fill="#33CCCC" d="M227.462,128.049c-2.481-19.496-13.152-32.843-30.839-40.914c0.16,0.57,0.262,1.148,0.481,1.697
		c3.808,9.679,6.188,19.699,6.939,30.092c0.16,2.182,0.38,4.36,0.583,6.542c2.262,0.633,3.866,2.322,5.799,3.487
		c4.796,2.879,9.7,5.613,13.541,9.813c1.444,1.587,2.212,1.41,2.761-0.642C227.623,134.82,227.893,131.435,227.462,128.049z"/>
</g>
</svg>
