<?xml version="1.0" encoding="UTF-8" standalone="no"?>
<!-- Created with Inkscape (http://www.inkscape.org/) -->

<svg
   xmlns:dc="http://purl.org/dc/elements/1.1/"
   xmlns:cc="http://creativecommons.org/ns#"
   xmlns:rdf="http://www.w3.org/1999/02/22-rdf-syntax-ns#"
   xmlns:svg="http://www.w3.org/2000/svg"
   xmlns="http://www.w3.org/2000/svg"
   xmlns:xlink="http://www.w3.org/1999/xlink"
   xmlns:sodipodi="http://sodipodi.sourceforge.net/DTD/sodipodi-0.dtd"
   xmlns:inkscape="http://www.inkscape.org/namespaces/inkscape"
   version="1.1"
   id="svg10"
   width="1500"
   height="617"
   viewBox="0 0 1500 617"
   sodipodi:docname="kiva_logo_green.svg"
   inkscape:version="0.92.4 (5da689c313, 2019-01-14)">
  <metadata
     id="metadata16">
    <rdf:RDF>
      <cc:Work
         rdf:about="">
        <dc:format>image/svg+xml</dc:format>
        <dc:type
           rdf:resource="http://purl.org/dc/dcmitype/StillImage" />
        <dc:title></dc:title>
      </cc:Work>
    </rdf:RDF>
  </metadata>
  <defs
     id="defs14" />
  <sodipodi:namedview
     pagecolor="#ffffff"
     bordercolor="#666666"
     borderopacity="1"
     objecttolerance="10"
     gridtolerance="10"
     guidetolerance="10"
     inkscape:pageopacity="0"
     inkscape:pageshadow="2"
     inkscape:window-width="3200"
     inkscape:window-height="1675"
     id="namedview12"
     showgrid="false"
     inkscape:zoom="1.754"
     inkscape:cx="750"
     inkscape:cy="308.5"
     inkscape:window-x="-13"
     inkscape:window-y="-13"
     inkscape:window-maximized="1"
     inkscape:current-layer="svg10" />
  <image
     width="1500"
     height="617"
     preserveAspectRatio="none"
     id="image18"
     x="0"
     y="0" />
  <path
     style="fill:#4eae4d"
     d="m 1222.1649,610.89191 c -17.3691,-2.34142 -40.8668,-9.87591 -55.1649,-17.68857 -39.9708,-21.84049 -69.185,-58.63722 -85.3752,-107.5345 -15.8728,-47.93843 -17.8334,-110.48242 -5.0523,-161.16884 16.8463,-66.80758 58.8049,-115.89475 116.116,-135.84342 45.8232,-15.95001 100.9999,-11.4864 139.3032,11.26916 15.1083,8.97568 28.5028,21.84028 37.2999,35.82426 2.1625,3.4375 4.3239,6.25 4.8032,6.25 0.4793,0 0.9915,-11.5875 1.1383,-25.75 L 1375.5,190.5 h 59.5 59.5 v 205 205 h -59.5 -59.5 l -0.2658,-27.75 c -0.1462,-15.2625 -0.6047,-27.75 -1.0189,-27.75 -0.4142,0 -3.5777,4.00208 -7.0301,8.8935 -15.4672,21.91438 -39.3384,39.75676 -65.5728,49.01193 -16.5324,5.83243 -30.7895,8.16039 -52.6124,8.59074 -10.725,0.2115 -22.8008,-0.0604 -26.8351,-0.60426 z m 72.9746,-95.47692 c 37.3612,-7.08309 64.8018,-36.12016 73.2652,-77.5278 5.3259,-26.05674 4.4661,-68.4415 -1.8843,-92.88719 -8.8249,-33.97182 -32.4295,-59.46648 -63.1051,-68.15817 -6.3678,-1.80425 -10.4569,-2.24192 -20.9153,-2.23861 -12.0534,0.004 -13.6918,0.24118 -22.5,3.25964 -12.6956,4.3506 -22.0051,10.34515 -31.6037,20.35014 -16.2136,16.89999 -26.0899,38.36033 -30.9663,67.287 -2.448,14.52187 -2.9156,36.93615 -1.0955,52.51473 8.0795,69.15313 46.746,107.26983 98.805,97.40026 z M 5.4655127,599.7577 C 5.2028189,599.06596 5.1031128,467.325 5.2439438,307 L 5.5,15.5 H 67 128.5 V 308 600.5 l -61.278431,0.2577 c -48.492561,0.20393 -61.3780886,-0.005 -61.7560563,-1 z M 370,600.31802 c -84.43258,-5.1361 -150.24319,-39.64431 -190.53506,-99.90828 -7.8372,-11.72198 -18.94512,-33.44698 -23.89172,-46.72771 -6.13443,-16.46983 -11.56849,-39.51131 -11.57185,-49.06691 l -0.001,-3.88489 25.75,0.56865 c 33.94552,0.74964 55.26474,3.71326 81.55376,11.33694 72.96387,21.15915 126.19762,72.09312 150.09243,143.60824 4.31674,12.91963 8.82182,34.43166 8.40502,40.13452 L 409.5,600.5 l -17,0.0763 c -9.35,0.042 -19.475,-0.0743 -22.5,-0.25827 z m 87.46513,-0.56032 C 457.20222,599.06596 457.10252,506.7 457.24356,394.5 L 457.5,190.5 h 61.5 61.5 v 205 205 l -61.27843,0.2577 c -48.4924,0.20392 -61.37817,-0.005 -61.75644,-1 z m 316.74308,-0.008 c -1.77562,-2.14099 -144.30807,-407.04739 -143.77505,-408.4364 0.40907,-1.06602 12.52508,-1.31071 64.28546,-1.29829 35.07976,0.008 64.30763,0.35008 64.95081,0.75923 1.44598,0.91982 51.67876,166.17896 79.20643,260.57856 4.94836,16.96921 9.25812,31.11421 9.57724,31.43334 1.29111,1.29111 2.5926,-2.27911 9.03565,-24.78644 17.88311,-62.47056 78.48568,-265.14523 79.76199,-266.75 1.2306,-1.54731 121.25876,-1.85269 122.21156,-0.31093 0.4828,0.78109 -140.29951,406.37047 -142.0192,409.153 C 917.11549,600.62215 887.40947,601 846.06343,601 c -55.43527,0 -71.04373,-0.27153 -71.85522,-1.25 z M 144.32123,379.25 c 2.75191,-26.10512 20.84071,-66.79399 42.44356,-95.47232 38.75997,-51.45484 96.09778,-83.22947 164.66174,-91.24983 7.06437,-0.82636 22.2204,-1.80377 33.68008,-2.17202 18.81992,-0.60477 20.89702,-0.50993 21.46885,0.98022 0.92242,2.40378 -3.07324,21.13381 -7.0302,32.95473 -14.75578,44.08102 -44.06585,85.232 -79.79456,112.03056 -14.02431,10.51903 -23.0411,16.0027 -38.85432,23.62972 -35.74041,17.23829 -72.76798,25.04601 -118.78884,25.0481 L 143.71509,385 Z M 503.5,148.59119 C 480.39681,144.08444 462.01539,130.36979 452.50655,110.54423 447.1353,99.345373 445,89.945688 445,77.5 445,64.9478 447.13679,55.66002 452.70718,44 460.99846,26.644564 478.07359,12.73322 497.5,7.5066724 505.77002,5.2816765 522.84794,4.4963931 531.97655,5.9213581 548.51187,8.5025002 560.41608,14.461851 572.08501,26 c 13.08139,12.934775 19.69073,28.017807 20.65211,47.129775 1.52484,30.313095 -12.77345,55.901735 -38.23712,68.430295 -4.95,2.43549 -11.7,5.13263 -15,5.99364 -8.38202,2.187 -27.31074,2.7325 -36,1.03748 z"
     id="path20"
     inkscape:connector-curvature="0" />
</svg>
