<?xml version="1.0" encoding="UTF-8" standalone="no"?>
<!-- Created with Inkscape (http://www.inkscape.org/) -->

<svg
   xmlns:dc="http://purl.org/dc/elements/1.1/"
   xmlns:cc="http://creativecommons.org/ns#"
   xmlns:rdf="http://www.w3.org/1999/02/22-rdf-syntax-ns#"
   xmlns:svg="http://www.w3.org/2000/svg"
   xmlns="http://www.w3.org/2000/svg"
   xmlns:xlink="http://www.w3.org/1999/xlink"
   xmlns:sodipodi="http://sodipodi.sourceforge.net/DTD/sodipodi-0.dtd"
   xmlns:inkscape="http://www.inkscape.org/namespaces/inkscape"
   width="297.45074mm"
   height="148.01353mm"
   viewBox="0 0 297.45074 148.01353"
   version="1.1"
   id="svg3730"
   inkscape:version="0.92.4 (5da689c313, 2019-01-14)"
   sodipodi:docname="kiva.svg">
  <defs
     id="defs3724" />
  <sodipodi:namedview
     id="base"
     pagecolor="#ffffff"
     bordercolor="#666666"
     borderopacity="1.0"
     inkscape:pageopacity="0.0"
     inkscape:pageshadow="2"
     inkscape:zoom="0.98994949"
     inkscape:cx="432.66288"
     inkscape:cy="310.70669"
     inkscape:document-units="mm"
     inkscape:current-layer="layer1"
     showgrid="false"
     inkscape:window-width="1920"
     inkscape:window-height="1137"
     inkscape:window-x="-8"
     inkscape:window-y="-8"
     inkscape:window-maximized="1" />
  <metadata
     id="metadata3727">
    <rdf:RDF>
      <cc:Work
         rdf:about="">
        <dc:format>image/svg+xml</dc:format>
        <dc:type
           rdf:resource="http://purl.org/dc/dcmitype/StillImage" />
        <dc:title></dc:title>
      </cc:Work>
    </rdf:RDF>
  </metadata>
  <g
     inkscape:label="Layer 1"
     inkscape:groupmode="layer"
     id="layer1"
     transform="translate(0.39078435,-119.69355)">
    <path
       style="fill:#4eae4d;stroke-width:0.21810722"
       d="m 241.96512,266.24182 c -3.4443,-0.56169 -8.10391,-2.36916 -10.93923,-4.24336 -7.92623,-5.23936 -13.71942,-14.06661 -16.92994,-25.79669 -3.14759,-11.50006 -3.53637,-26.50389 -1.00188,-38.66317 3.34063,-16.02662 11.66104,-27.80226 23.02586,-32.58779 9.08677,-3.82628 20.02833,-2.7555 27.6239,2.70339 2.99598,2.15319 5.65212,5.23931 7.39659,8.59396 0.42882,0.82463 0.85743,1.49933 0.95247,1.49933 0.0951,0 0.19662,-2.77976 0.22573,-6.17723 l 0.0529,-6.17723 h 11.79888 11.79888 v 49.17793 49.17792 H 284.1704 272.37152 l -0.0527,-6.65701 c -0.029,-3.66136 -0.11992,-6.65702 -0.20205,-6.65702 -0.0821,0 -0.70946,0.96007 -1.39407,2.13349 -3.06716,5.25709 -7.80083,9.53734 -13.00312,11.75758 -3.27839,1.39916 -6.10558,1.95762 -10.43307,2.06085 -2.12677,0.0507 -4.52141,-0.0145 -5.32141,-0.14495 z m 14.4709,-22.90418 c 7.40874,-1.69918 12.85023,-8.66495 14.52852,-18.59832 1.05613,-6.25082 0.88563,-16.41859 -0.37365,-22.28293 -1.74999,-8.14957 -6.43079,-14.26555 -12.51378,-16.35062 -1.26274,-0.43282 -2.07361,-0.53782 -4.14751,-0.53702 -2.3902,9.6e-4 -2.71509,0.0579 -4.46176,0.78196 -2.51755,1.04368 -4.36362,2.48172 -6.26703,4.88184 -3.21517,4.05418 -5.17364,9.20235 -6.14063,16.14164 -0.48544,3.48368 -0.57817,8.86069 -0.21724,12.59788 1.60217,16.5893 9.26975,25.7332 19.59308,23.36557 z M 0.69302951,263.5708 c -0.0520923,-0.16594 -0.0718641,-31.76958 -0.0439372,-70.23031 l 0.0507761,-69.92861 H 12.895349 25.090829 v 70.1685 70.1685 l -12.151543,0.0618 c -9.6160988,0.0489 -12.1713053,-10e-4 -12.24625649,-0.2399 z m 72.28736849,0.13442 c -16.743022,-1.23211 -29.793299,-9.51036 -37.783196,-23.96723 -1.554121,-2.81201 -3.756827,-8.02367 -4.73774,-11.20961 -1.216461,-3.95099 -2.294037,-9.47846 -2.294704,-11.77078 l -1.98e-4,-0.93195 5.106238,0.13641 c 6.731413,0.17983 10.959025,0.89078 16.172151,2.71965 14.468771,5.07591 25.02505,17.29458 29.763403,34.45051 0.856011,3.09932 1.749371,8.25989 1.666719,9.62796 l -0.0598,0.9887 -3.371109,0.0183 c -1.854109,0.0101 -3.861902,-0.0178 -4.461761,-0.062 z m 17.344379,-0.13442 c -0.05214,-0.16594 -0.07191,-22.32382 -0.04394,-49.23974 l 0.05085,-48.93803 h 12.195483 12.19548 v 49.17793 49.17792 l -12.15154,0.0618 c -9.616072,0.0489 -12.171326,-10e-4 -12.246337,-0.2399 z m 62.810313,-0.002 c -0.35211,-0.51361 -28.61637,-97.64754 -28.51067,-97.98075 0.0811,-0.25573 2.48373,-0.31443 12.74784,-0.31145 6.95633,0.002 12.75224,0.084 12.87978,0.18213 0.28674,0.22066 10.24792,39.86505 15.70667,62.51079 0.98126,4.07078 1.83589,7.46406 1.89917,7.54062 0.25603,0.30973 0.51412,-0.54674 1.79178,-5.94608 3.54623,-14.9862 15.56375,-63.6063 15.81684,-63.99127 0.24403,-0.37119 24.04567,-0.44445 24.23461,-0.0746 0.0957,0.18738 -27.82146,97.48515 -28.16248,98.15266 -0.065,0.12723 -5.95568,0.21787 -14.15462,0.21787 -10.99284,0 -14.08801,-0.0651 -14.24892,-0.29986 z M 28.228187,210.67271 c 0.545705,-6.26242 4.132723,-16.02337 8.416579,-22.90308 7.686121,-12.34362 19.056237,-19.96611 32.652504,-21.89013 1.400868,-0.19824 4.406316,-0.43271 6.678776,-0.52105 3.732,-0.14508 4.14389,-0.12233 4.257284,0.23515 0.182916,0.57664 -0.609425,5.06983 -1.394092,7.90558 -2.926079,10.5747 -8.73828,20.4465 -15.823301,26.87527 -2.781027,2.52343 -4.569061,3.83892 -7.704831,5.66859 -7.087341,4.13533 -14.429926,6.00834 -23.555885,6.00884 l -3.647232,2.1e-4 z m 71.225327,-55.33328 c -4.581374,-1.08113 -8.226419,-4.37117 -10.112026,-9.12717 -1.065122,-2.68652 -1.488553,-4.94143 -1.488553,-7.92706 0,-3.01117 0.423727,-5.23924 1.528338,-8.03639 1.644165,-4.16343 5.030171,-7.50066 8.882438,-8.75447 1.639949,-0.53376 5.026509,-0.72214 6.836719,-0.3803 3.27896,0.61919 5.63957,2.0488 7.95353,4.81671 2.59404,3.10295 3.90468,6.72126 4.09532,11.30607 0.30238,7.27188 -2.53298,13.4104 -7.58244,16.4159 -0.98159,0.58426 -2.32012,1.23128 -2.97451,1.43783 -1.66216,0.52464 -5.41573,0.6555 -7.138816,0.24888 z"
       id="path3745"
       inkscape:connector-curvature="0" />
  </g>
</svg>
