<svg version="1.1" viewBox="0.0 0.0 570.2677165354331 518.4514435695538" fill="none" stroke="none" stroke-linecap="square" stroke-miterlimit="10" xmlns:xlink="http://www.w3.org/1999/xlink" xmlns="http://www.w3.org/2000/svg"><clipPath id="p.0"><path d="m0 0l570.2677 0l0 518.4514l-570.2677 0l0 -518.4514z" clip-rule="nonzero"/></clipPath><g clip-path="url(#p.0)"><path fill="#000000" fill-opacity="0.0" d="m0 0l570.2677 0l0 518.4514l-570.2677 0z" fill-rule="evenodd"/><defs><linearGradient id="p.1" gradientUnits="userSpaceOnUse" gradientTransform="matrix(22.49391843225854 12.439019246935274 -12.439019246935274 22.49391843225854 0.0 0.0)" spreadMethod="pad" x1="11.183234192350557" y1="17.16264161135601" x2="11.183480693841995" y2="-5.331276819551871"><stop offset="0.0" stop-color="#0a2c5c"/><stop offset="1.0" stop-color="#0f428a"/></linearGradient></defs><path fill="url(#p.1)" d="m260.24802 16.794882l0 0c6.908966 -12.4567175 22.61496 -16.966763 35.080353 -10.073467l0 0l0 0c5.9861145 3.3102765 10.409027 8.861284 12.295807 15.431864c1.8867493 6.5705795 1.0828247 13.622505 -2.2349854 19.604431l-255.41826 460.51453c-6.9089546 12.456696 -22.614962 16.966766 -35.08035 10.073456l0 0l0 0c-12.465389 -6.89328 -16.96977 -22.57959 -10.060818 -35.036285z" fill-rule="evenodd"/><path fill="#0a2c5c" d="m542.905 466.0352l0 0c14.027283 0 25.398682 11.371399 25.398682 25.398712l0 0.82177734l0 0c0 6.736145 -2.6759033 13.196411 -7.439087 17.959595c-4.7631836 4.7631836 -11.22345 7.439087 -17.959595 7.439087l-259.0906 0c-14.027313 0 -25.398712 -11.371368 -25.398712 -25.398682l0 -0.82177734c0 -14.027313 11.371399 -25.398712 25.398712 -25.398712z" fill-rule="evenodd"/><defs><linearGradient id="p.2" gradientUnits="userSpaceOnUse" gradientTransform="matrix(22.719871309763754 0.0 0.0 22.719871309763754 0.0 0.0)" spreadMethod="pad" x1="13.647248529163642" y1="22.784237225920478" x2="13.64749762603315" y2="0.06436591752224996"><stop offset="0.0" stop-color="#0a2c5c"/><stop offset="1.0" stop-color="#0f428a"/></linearGradient></defs><path fill="url(#p.2)" d="m258.4157 27.286385l0 0c0 -14.2622 11.561798 -25.824 25.824005 -25.824l0 0l0 0c6.848938 0 13.417389 2.720735 18.260315 7.563675c4.8429565 4.8429394 7.56369 11.411375 7.56369 18.260324l0 464.544c0 14.262207 -11.561798 25.823975 -25.824005 25.823975l0 0l0 0c-14.262207 0 -25.824005 -11.561768 -25.824005 -25.823975z" fill-rule="evenodd"/></g></svg>