<svg xmlns="http://www.w3.org/2000/svg" xmlns:xlink="http://www.w3.org/1999/xlink" viewBox="0 0 175.3 155.8"><defs/><defs><path id="a" d="M101.7 99.7h-10v10h-8.9v-10h-10v-8.8h10v-10h8.8v10h10zm63.2 39.6c.3 4.4-.6 9.5-5 12-4.4 2.7-7.8 3.3-10.4 3a11 11 0 01-6-3c-1.4-1.2-18.8-20.3-18.8-20.3s-2-3-6.2-6l-2.3-1.4a12.6 12.6 0 01-19.3-4.4H77.5a12.6 12.6 0 01-19.3 4.4l-2.2 1.5c-4.3 3-6.3 5.9-6.3 5.9S32.3 150 31 151.4a11 11 0 01-6 2.8c-2.5.4-6-.2-10.3-2.8-4.5-2.6-5.3-7.7-5-12 .2-4.5 1.5-8.2 1.5-8.2l19-55c2.3-6.5 5.7-9.4 8.6-10.6 2.8-1.3 9.3-1 11.4-1 6 .1 12 7.6 20.8 7.6h10.8c-5.3-7.1-14-20.7-10-29.3 2-4.7 7.3-7 15.5-7 6.1 0 9.8-1.4 11-4.2 3-6.4-6.3-20.8-12.9-28.4L89.1 0c2 2.3 19 22.4 13.7 33.8-2.1 4.7-7.4 7-15.6 7-6 0-9.7 1.5-11 4.2-2.8 6 5.4 19.3 11.9 27.2h15.5c8.8 0 14.8-7.5 20.8-7.5 2 0 8.6-.4 11.4.9 2.8 1.2 6.2 4 8.5 10.6l19 55s1.4 3.7 1.6 8.1zM16.6 179.7c-1.6-.9-3.6-1.2-5.1-1.2-2.4 0-4 1.3-4.8 4.2-.4 1.4-.6 3-.6 4.7 0 2.8 1.1 3.8 3.4 3.8a16 16 0 005.6-1.3c.2 1.5.2 2.6.2 3.4v2c-1.9.5-4.5.9-6.3.9-6.1 0-9-2.9-9-8.5 0-2.4.4-4.7 1.1-6.7 1.6-4.7 5.3-7.5 11-7.5 2 0 4.5.4 6.2 1.2-.3 1.1-1 3.4-1.7 5zm13 4.5c0-.7-.5-1-1.6-1-.9 0-1.5.1-2.3.6l-2.1 12h-5.4l4.2-23.9c1.5-.2 3.7-.4 5.5-.4l-1.6 8.8h.2a5.6 5.6 0 013.9-1.8c2.9 0 4.8 1.4 4.8 4.2l-.2 1.4-1 6-.1.5c0 .3.1.5.5.5h2.2l-.3 2c-.5 2.3-2 3-3.8 3-3 0-4.2-1.2-4.2-3.6 0-.7 0-1.4.2-2.3l1-5.6v-.4zm14.2-7c-1.8 0-2.7-1.1-2.7-2.4 0-1.8 1.4-3.3 3.5-3.3 1.8 0 2.6 1.2 2.6 2.4 0 2-1.3 3.3-3.4 3.3zm2.7 15.8c-.5 2.4-2 3.2-3.8 3.2-3 0-4.2-1.3-4.2-3.7 0-.7 0-1.4.2-2.3l2-11.4h5.4l-2 11.3v.5c0 .3.1.5.5.5h2.2zm8-2.9v.5c0 .3.2.5.5.5h2.2l-.3 2c-.4 2.3-2 3-3.8 3-3 0-4.2-1.2-4.2-3.6 0-.7 0-1.4.3-2.3l3.2-18.3a46 46 0 015.4-.4zm19.7 0v.5c0 .3 0 .5.5.5h2.1l-.3 2c-.4 2.3-1.9 3-3.7 3-1.6 0-2.8-.4-3.5-2h-.2a5.6 5.6 0 01-4.7 2c-3.7 0-5.3-2.4-5.3-6.5 0-.8 0-1.5.2-2.4 1-6.8 4.8-8.7 8.7-8.7.7 0 2 .1 2.8.3l1.2-6.9a47 47 0 015.5-.4zm-4.2-6.8a5 5 0 00-1.9-.4c-1.6 0-2.5.9-3 4.3l-.3 2.1c0 1.8.7 2.4 1.8 2.4.8 0 1.4-.2 2-.4zm16.8-8.2a9.6 9.6 0 01-6.4 7.5c-.6-.8-1.2-1.9-1.4-2.9 1.8-.6 2.8-1.5 3.1-2.5H81c-.2-.8-.2-1.2-.2-1.7 0-.9.2-2 .4-3h6zm11.7 8.6c-1.4-.5-3.5-.8-4.8-.8-.9 0-1.3.3-1.3 1 0 1.6 6.1 1 6.1 6.1 0 3.7-2.9 6.2-7.7 6.2-2 0-4.2-.6-5.7-1.5.3-1.4 1-3.4 1.7-4.6 1.4.9 3.4 1.5 5 1.5.8 0 1.1-.3 1.1-1 0-1.7-6.1-1.1-6.1-6.2 0-3.3 2.6-6 8-6 1 0 3.5.3 4.7.7-.1 1.3-.5 3-1 4.6zm18.2 5.5h-1.6l-1.2 6.7H108l2.8-16v-.7c0-.4-.1-.6-.7-.6h-1.7l.3-1.7c.4-2.2 1.9-3.4 4.5-3.4 1.5 0 2.7.2 3.4 1a6 6 0 013.5-1c3.7 0 6 2 6 6.3 0 6.3-4.4 9.4-9.5 9.4zm1.8-11.2l-1.5.1-1.1 6.5h1.5c1.7 0 3-1.5 3-4.4 0-1.5-.7-2.2-1.9-2.2zm14.3 12.1v.5c0 .3.1.5.5.5h2.2l-.4 2c-.4 2.3-1.9 3-3.8 3-2.9 0-4.1-1.2-4.1-3.6 0-.7 0-1.4.2-2.3l3.2-18.3a46 46 0 015.5-.4zm14.4 4h-.2a4.9 4.9 0 01-4.3 2c-3.4 0-5.3-2-5.3-6.5l.1-2.4c1-6.6 4.8-8.7 8.8-8.7.8 0 2 .1 2.9.3.7-.2 1.5-.3 2.5-.3.7 0 1.7 0 2.2.2l-2 11.4v.5c0 .3.2.5.5.5h2.2l-.3 2c-.4 2.3-1.9 3-3.7 3-1.6 0-2.7-.4-3.4-2zm.7-10.9a5 5 0 00-1.6-.3c-1.5 0-2.5 1-3 4.3-.2.8-.2 1.6-.2 2.1 0 1.7.5 2.4 1.7 2.4.6 0 1.1-.1 1.7-.4zm18.3 12.4c-3.2 6-5.7 7.3-9 7.3-.9 0-2.5-.1-3.7-.8a20 20 0 011.5-4.6c.8.4 2 .6 3 .6.7 0 1.3-.5 1.8-1.4l.6-1-2.1-11.6c-.1-.3-.3-.5-.7-.5h-1.9l.3-2c.5-2.4 2-3.1 3.9-3.1 2.7 0 3.4 1.2 3.6 3.7l.5 5.2v2h.4l.7-2.1 4-8.6c1.4 0 3.7 0 5.4.3z"/></defs><use width="100%" height="100%" fill="#99bb72" fill-rule="evenodd" transform="translate(.1)" xlink:href="#a"/></svg>