<svg xmlns="http://www.w3.org/2000/svg" viewBox="0 0 300 300"><defs/><path fill="#036" d="M184 110c-3-2-5-5-7-9-4-13-12-24-19-35l-11-19c-1-3-2-6-1-10 0-3 1-4 4-4l-5-1c-8 1-13 6-17 13-4 8-4 16-4 25 1 13 4 25 8 36s9 22 12 34c2 11 4 23 2 35-3 14-10 24-23 30-6 3-12 3-17-3l-5-7c-8-9-19-10-29-8-2 0-2 1-1 2l2 3 7 15c4 9 11 16 21 18 2 0 2 0 1 2-3 5-3 11-2 16 1 6 4 11 7 15 2 5 6 10 7 16l2 1 5-5c6-9 7-19 4-29-3-6-2-12 3-16l8-4 1-1h-1l6-3c17-13 28-30 34-49l5-17 15 17v2h1l2 2 3 7h3l5-9c4-11 3-22-2-33-1-2-3-4-3-7h-1c-5-9-12-14-20-20z"/><path fill="#FBFCFC" stroke="#3CC" stroke-miterlimit="10" stroke-width=".3" d="M197 89v-2l-3-6c-7-14-17-27-29-38-4-4-9-8-15-10-3 0-4 1-4 4-1 4 0 7 1 10l11 19c7 11 15 22 19 35 2 4 4 7 7 9 8 6 15 11 20 20h1v-5l-1-6c-1-10-3-20-7-30zM181 152l-4 16c-7 20-18 37-35 49l-5 3c5-1 10-3 14-6 16-8 29-18 39-33l6-11v-1l-15-17z"/><path fill="#FBFCFC" stroke="#3CC" stroke-miterlimit="10" stroke-width=".3" d="M196 168l-15-17-5 17c-6 19-17 36-34 49l-6 3h1s0 0 0 0l5-3c17-12 28-29 35-49l4-16 15 17v-1z"/><path fill="#3CC" d="M227 128c-2-19-13-33-30-41v2c4 10 6 20 7 30l1 6 5 4 14 10c1 1 2 1 3-1v-10z"/></svg>