<svg xmlns="http://www.w3.org/2000/svg" aria-hidden="true" class="svg-inline--fa fa-file-alt fa-w-12" data-icon="file-alt" data-prefix="far" viewBox="0 0 384 512"><defs/><path fill="currentColor" d="M288 248v28c0 7-5 12-12 12H108c-7 0-12-5-12-12v-28c0-7 5-12 12-12h168c7 0 12 5 12 12zm-12 72H108c-7 0-12 5-12 12v28c0 7 5 12 12 12h168c7 0 12-5 12-12v-28c0-7-5-12-12-12zm108-188v332c0 27-21 48-48 48H48c-26 0-48-21-48-48V48C0 22 22 0 48 0h204c13 0 25 5 34 14l84 84c9 9 14 21 14 34zM256 52v76h76l-76-76zm80 412V176H232c-13 0-24-11-24-24V48H48v416h288z"/></svg>