<svg xmlns="http://www.w3.org/2000/svg" viewBox="0 0 128 128"><defs/><path fill="#fff" d="M105.8 29.8a7.7 7.7 0 11-15.3 0 7.7 7.7 0 0115.3 0zM64 85.3a21.3 21.3 0 110-42.6 21.3 21.3 0 010 42.6zm0-54.2A32.9 32.9 0 1064 97 32.9 32.9 0 0064 31zm0-19.6c17 0 19.1.1 25.9.4 6.2.3 9.6 1.3 11.8 2.2 3 1.2 5.2 2.6 7.4 4.8 2.2 2.2 3.6 4.4 4.8 7.4.9 2.2 2 5.6 2.2 11.8.3 6.8.4 8.8.4 25.9 0 17-.1 19.1-.4 25.9-.3 6.2-1.3 9.6-2.2 11.8-1.2 3-2.6 5.2-4.8 7.4a19.8 19.8 0 01-7.4 4.8c-2.2.9-5.6 2-11.8 2.2-6.8.3-8.8.4-25.9.4-17 0-19.1 0-25.9-.4-6.2-.3-9.6-1.3-11.8-2.2-3-1.2-5.2-2.6-7.4-4.8a19.8 19.8 0 01-4.8-7.4c-.9-2.2-2-5.6-2.2-11.8-.3-6.8-.4-8.8-.4-25.9 0-17 .1-19.1.4-25.9.3-6.2 1.3-9.6 2.2-11.8 1.2-3 2.6-5.2 4.8-7.4 2.2-2.2 4.4-3.6 7.4-4.8 2.2-.9 5.6-2 11.8-2.2 6.8-.3 8.8-.4 25.9-.4zM64 0C46.6 0 44.4 0 37.6.4a47 47 0 00-15.5 3 31.4 31.4 0 00-11.4 7.3 31.4 31.4 0 00-7.3 11.4 47 47 0 00-3 15.5C0 44.4 0 46.6 0 64s0 19.6.4 26.4a47 47 0 003 15.5A31.4 31.4 0 0022 124.6a47 47 0 0015.5 3c6.8.3 9 .4 26.4.4s19.6 0 26.4-.4a47 47 0 0015.5-3 31.4 31.4 0 0018.7-18.7 47 47 0 003-15.5c.3-6.8.4-9 .4-26.4s0-19.6-.4-26.4a47 47 0 00-3-15.5 31.4 31.4 0 00-7.3-11.4 31.4 31.4 0 00-11.4-7.3 47 47 0 00-15.5-3C83.6 0 81.4 0 64 0z" clip-rule="evenodd"/></svg>