<svg xmlns="http://www.w3.org/2000/svg" viewBox="0 0 1500 617"><defs/><image width="1500" height="617" preserveAspectRatio="none"/><path fill="#4eae4d" d="M1222 611c-17-2-41-10-55-18-40-22-69-58-85-107-16-48-18-111-5-161 16-67 58-116 116-136 46-16 101-12 139 11 15 9 28 22 37 36l5 6 1-26 1-25h119v410h-119l-1-28-1-28-7 9c-15 22-39 40-65 49a256 256 0 01-79 8zm73-96c38-7 65-36 73-77 6-26 5-69-1-93-9-34-33-59-64-68-6-2-10-2-20-2-13 0-14 0-23 3-13 4-22 10-32 20-16 17-26 39-31 68-2 14-2 36-1 52 8 69 47 107 99 97zM5 600V307L6 16h123v585H67l-62-1zm365 0c-84-5-150-39-191-100-7-11-18-33-23-46-7-17-12-40-12-49v-4h26c34 1 55 4 81 12a218 218 0 01159 183v5h-17l-23-1zm87 0V395l1-204h123v410h-62l-62-1zm317 0c-2-2-144-407-144-409l65-1 65 1a10287 10287 0 0188 292 16442 16442 0 0189-292c1-1 122-2 122 0 1 1-140 406-142 409a1315 1315 0 01-143 0zM144 379a235 235 0 01207-187 508 508 0 0156-1c0 3-3 21-7 33a238 238 0 01-119 136c-36 17-73 25-119 25h-18zm360-230a70 70 0 01-58-71 71 71 0 0152-70c8-3 25-4 34-2 17 3 28 8 40 20 13 13 20 28 21 47 1 30-13 56-38 69l-15 6c-9 2-28 2-36 1z"/></svg>